<svg xmlns="http://www.w3.org/2000/svg" viewBox="0 0 24 24" fill="none">
  <path d="M7 7l1.2-2A2 2 0 0110 4h4a2 2 0 011.8 1l1.2 2" stroke="currentColor" stroke-width="1.8" stroke-linecap="round" stroke-linejoin="round"></path>
  <path d="M6 7h12a3 3 0 013 3v7a3 3 0 01-3 3H6a3 3 0 01-3-3v-7a3 3 0 013-3z" stroke="currentColor" stroke-width="1.8" stroke-linecap="round" stroke-linejoin="round"></path>
  <path d="M12 17a3.5 3.5 0 100-7 3.5 3.5 0 000 7z" stroke="currentColor" stroke-width="1.8" stroke-linecap="round" stroke-linejoin="round"></path>
  <path d="M18.2 10.2h.01" stroke="currentColor" stroke-width="3" stroke-linecap="round"></path>
</svg>
